<svg width="16" height="16" viewBox="0 0 16 16" fill="none" xmlns="http://www.w3.org/2000/svg">
<path d="M8.8882 12.1H13.4872C13.8242 12.1 14.102 11.849 14.14 11.5257L14.1444 11.4499V6.89944C14.1444 6.54041 13.8501 6.24937 13.4872 6.24937C13.15 6.24937 12.8723 6.5003 12.8343 6.82364L12.8299 6.89944L12.8293 9.88066L8.03629 5.13963C7.79946 4.90543 7.42691 4.88726 7.16905 5.08523L7.10714 5.13923L5.59797 6.62921L2.12214 3.19048C1.86549 2.93657 1.44932 2.9365 1.19259 3.19033C0.95561 3.42463 0.937324 3.79336 1.13777 4.04841L1.19244 4.10966L5.13264 8.00781C5.36942 8.2421 5.74204 8.2603 5.99993 8.06229L6.06186 8.00827L7.57105 6.51824L11.8993 10.7999H8.8882C8.55114 10.7999 8.27331 11.0508 8.23538 11.3741L8.23091 11.4499C8.23091 11.7833 8.48469 12.0581 8.81156 12.0956L8.8882 12.1Z" fill="white"/>
</svg>
