<svg width="16" height="16" viewBox="0 0 16 16" fill="none" xmlns="http://www.w3.org/2000/svg">
<path d="M9.10244 3.77344H13.6504C13.9837 3.77344 14.2584 4.02436 14.2959 4.34763L14.3004 4.42344V8.97344C14.3004 9.33243 14.0093 9.62344 13.6504 9.62344C13.317 9.62344 13.0423 9.37254 13.0047 9.04923L13.0004 8.97344L12.9998 5.99254L8.25997 10.7331C8.02578 10.9672 7.65736 10.9854 7.40236 10.7875L7.34113 10.7334L5.84871 9.24364L2.41145 12.682C2.15765 12.9359 1.74609 12.936 1.49221 12.6821C1.25786 12.4479 1.23978 12.0792 1.438 11.8241L1.49206 11.7629L5.38855 7.86519C5.6227 7.63093 5.99118 7.61273 6.24621 7.81072L6.30746 7.86473L7.7999 9.3546L12.0801 5.07344H9.10244C8.76912 5.07344 8.49436 4.82251 8.45686 4.49924L8.45244 4.42344C8.45244 4.09009 8.7034 3.81536 9.02665 3.77781L9.10244 3.77344H13.6504H9.10244Z" fill="white"/>
</svg>
