<svg xmlns="http://www.w3.org/2000/svg" width="81.992" height="81.992" viewBox="0 0 81.992 81.992">
  <path id="ic_sentiment_very_satisfied_24px" d="M42.955,2A41,41,0,1,0,83.992,43,40.95,40.95,0,0,0,42.955,2ZM43,75.793A32.8,32.8,0,1,1,75.793,43,32.788,32.788,0,0,1,43,75.793Zm4.1-41.242L51.441,38.9l4.346-4.346L60.133,38.9l4.346-4.346L55.787,25.86Zm-16.89,0L34.551,38.9,38.9,34.551,30.205,25.86l-8.691,8.691L25.86,38.9ZM43,65.544A22.532,22.532,0,0,0,63.945,51.2h-41.9A22.532,22.532,0,0,0,43,65.544Z" transform="translate(-2 -2)" fill="#f9b700"/>
</svg>
