<svg xmlns="http://www.w3.org/2000/svg" width="24" height="24" viewBox="0 0 24 24"><path d="M23.6,5.6H12.656L11.6,2H4.4A2.407,2.407,0,0,0,2,4.4V20a2.407,2.407,0,0,0,2.4,2.4h8.4L14,26h9.6A2.407,2.407,0,0,0,26,23.6V8A2.407,2.407,0,0,0,23.6,5.6ZM8.2,17.108a4.908,4.908,0,1,1,0-9.816,4.739,4.739,0,0,1,3.288,1.284l.084.072L10.1,10.064,10.028,10A2.606,2.606,0,0,0,8.2,9.3a2.9,2.9,0,0,0,0,5.808,2.459,2.459,0,0,0,2.544-1.752H8.1v-1.86h4.74l.012.084a3.767,3.767,0,0,1,.06.732A4.549,4.549,0,0,1,8.2,17.108Zm7.236-2.052a11.978,11.978,0,0,0,1.428,2.04l-.648.636-.78-2.676Zm.924-.912H15.176L14.8,12.9h4.788a9.217,9.217,0,0,1-1.872,3.288,11.018,11.018,0,0,1-1.356-2.04ZM24.8,23.6a1.2,1.2,0,0,1-1.2,1.2H15.2l2.4-2.4-.972-3.324,1.1-1.1L20.948,21.2l.876-.876-3.252-3.216a10.477,10.477,0,0,0,2.3-4.212H22.4V11.648H18.032V10.4H16.784v1.248H14.432L13.016,6.8H23.6A1.2,1.2,0,0,1,24.8,8Z" transform="translate(-2 -2)" fill="#9b9b9b"/></svg>