<svg width="36" height="32" viewBox="0 0 36 32" fill="none" xmlns="http://www.w3.org/2000/svg">
<path d="M20.45 0.412619C19.8527 -0.157029 18.907 -0.133999 18.338 0.464023C17.7689 1.06207 17.792 2.00865 18.3894 2.5783L30.8407 14.4514H1.49382C0.668815 14.4514 0 15.1209 0 15.9468C0 16.7727 0.668815 17.4423 1.49382 17.4423H30.8409L18.3894 29.3156C17.792 29.8852 17.7689 30.832 18.338 31.4299C18.907 32.0279 19.8527 32.0511 20.45 31.4814L35.2267 17.3908C35.5632 17.07 35.7623 16.6606 35.8241 16.2353C35.8422 16.142 35.8518 16.0455 35.8518 15.9468C35.8518 15.8481 35.8422 15.7514 35.8239 15.6579C35.7621 15.2328 35.563 14.8238 35.2267 14.5032L20.45 0.412619Z" fill="white"/>
</svg>
