<svg width="28" height="36" viewBox="0 0 28 36" fill="none" xmlns="http://www.w3.org/2000/svg">
<path d="M20.3028 7.08809C19.7818 7.77546 19.9133 8.75764 20.5963 9.28186C23.2828 11.3434 24.8889 14.5362 24.8889 18C24.8889 23.4741 20.8992 28.0105 15.6862 28.826L16.789 27.7155C17.3964 27.1043 17.3964 26.1132 16.789 25.502C16.1815 24.8907 15.1965 24.8907 14.5891 25.502L10.7002 29.415C10.0927 30.0262 10.0927 31.0173 10.7002 31.6285L14.5891 35.5416C15.1965 36.1528 16.1815 36.1528 16.789 35.5416C17.3964 34.9304 17.3964 33.9393 16.789 33.3281L15.4773 32.0095C22.515 31.2668 28 25.278 28 18C28 13.5492 25.933 9.44018 22.4829 6.79271C21.7999 6.26848 20.8238 6.40074 20.3028 7.08809ZM17.2998 4.37148L13.4109 0.458442C12.8035 -0.152814 11.8185 -0.152814 11.211 0.458442C10.6503 1.02268 10.6072 1.91052 11.0816 2.52454L11.211 2.672L12.5227 3.99054C5.48512 4.73321 0 10.7221 0 18C0 22.2571 1.89023 26.2068 5.08916 28.8656C5.75151 29.4161 6.73199 29.322 7.27911 28.6556C7.82625 27.9891 7.73284 27.0025 7.07048 26.452C4.57962 24.3817 3.11111 21.3133 3.11111 18C3.11111 12.526 7.10072 7.98952 12.3138 7.17407L11.211 8.28453C10.6036 8.8958 10.6036 9.88683 11.211 10.4981C11.7718 11.0623 12.6541 11.1057 13.2644 10.6283L13.4109 10.4981L17.2998 6.58505C17.8606 6.0208 17.9037 5.13296 17.4292 4.51894L17.2998 4.37148Z" fill="white"/>
</svg>
