<svg xmlns="http://www.w3.org/2000/svg" viewBox="0 0 449.45 436"><defs><style>.cls-1,.cls-3{fill:#6d6d6d;}.cls-2{fill:#f7b618;}.cls-3{font-size:72.44px;font-family:DVNPoppins-ExtraBold, DVN-Poppins;font-weight:800;}.cls-4{font-size:43.98px;font-family:DVNPoppins-Regular, DVN-Poppins;font-weight:400;}.cls-5{fill:#dc1d42;}.cls-6{fill:#017c77;}.cls-7{fill:#e63864;}.cls-8{fill:#fff;}</style></defs><title>logo</title><g id="Layer_2" data-name="Layer 2"><g id="Layer_1-2" data-name="Layer 1"><rect class="cls-1" x="208.5" y="136.13" width="50" height="187" rx="13.16"/><rect class="cls-1" x="321.27" y="192.56" width="34.33" height="130" rx="9.1" transform="translate(-29.02 43.43) rotate(-7.04)"/><rect class="cls-2" x="268.4" y="158.17" width="39.86" height="164.95" rx="11.03"/><rect class="cls-2" x="156.67" y="164.3" width="41.48" height="158.82" rx="11.05"/><text class="cls-3" transform="translate(46.08 391.38)">BEE <tspan class="cls-4" x="141.83" y="0">&amp;</tspan><tspan x="174.33" y="0" xml:space="preserve"> BOOK</tspan></text><path class="cls-5" d="M0,60.88l3.46,3.46A37.66,37.66,0,0,1,0,60.88Z"/><path class="cls-5" d="M57.5,60.88A37.66,37.66,0,0,1,54,64.34Z"/><path class="cls-1" d="M131.38,311.42a47.3,47.3,0,0,1-31.23,11.71l-6-.4-44-2.91,2.89-44,.39-6a47.23,47.23,0,1,1,78,41.62Z"/><circle class="cls-2" cx="100.25" cy="275.9" r="33.12"/><path class="cls-6" d="M194.59,131.25,318.44,0s22.35,53-32.88,88.3S194.59,131.25,194.59,131.25Z"/><path class="cls-6" d="M194.55,130.81,234.26.44s32.92,28.37,7.4,70.78S194.55,130.81,194.55,130.81Z"/><path class="cls-7" d="M371,298.49l-7.3-51.7a2.12,2.12,0,0,1,3.14-2.14l9.73,5.53a2.12,2.12,0,0,0,3.12-1.41l3.6-17.47a2.12,2.12,0,0,1,4.1-.2l5.53,18.05a2.11,2.11,0,0,0,3.79.54l11-16.74a2.11,2.11,0,0,1,3.88,1.11l.58,20.38a2.12,2.12,0,0,0,3.35,1.66l14.37-10.3a2.11,2.11,0,0,1,3.18,2.55l-7.38,17.13a2.12,2.12,0,0,0,2.39,2.91l18.76-4a2.12,2.12,0,0,1,1.94,3.57L436.1,280.66a2.12,2.12,0,0,0,.43,3.33l8.33,4.9a2.12,2.12,0,0,1-.25,3.78l-67.83,28.62a2.13,2.13,0,0,1-2.93-1.67Z"/><path class="cls-6" d="M376.71,324.63A4.73,4.73,0,0,1,372,320.5l-5.23-41.3a1.51,1.51,0,0,1,1.49-1.69h0c5.87.14,10.4,2.07,13.49,5.74,5.69,6.77,4.24,16.93,4.17,17.35a.51.51,0,0,1,0,.13l.56-.57C390.64,296,395.16,294,400,294c10.11,0,17.72,9.24,18,9.63a1.48,1.48,0,0,1,.3,1.28,1.46,1.46,0,0,1-.82,1l-38.76,18.29A4.69,4.69,0,0,1,376.71,324.63Z"/><path class="cls-8" d="M368.29,279c19.36.46,16.22,21.37,16.22,21.37s-5.32,7.16-4.16,7.16c.55,0,2.55-1.61,7.25-6.32,4.24-4.25,8.48-5.77,12.36-5.77,9.51,0,16.88,9.08,16.88,9.08l-38.76,18.29a3.21,3.21,0,0,1-4.56-2.51L368.29,279m0-3a3,3,0,0,0-3,3.38l5.24,41.3a6.2,6.2,0,0,0,8.81,4.84l38.76-18.29a3,3,0,0,0,1.05-4.61c-.34-.41-8.4-10.17-19.21-10.18a19.16,19.16,0,0,0-12.26,4.64c0-3.9-.77-10.09-4.73-14.8-3.38-4-8.29-6.13-14.61-6.28Z"/></g></g></svg>