<svg width="420" height="579" viewBox="0 0 420 579" fill="none" xmlns="http://www.w3.org/2000/svg">
<path fill-rule="evenodd" clip-rule="evenodd" d="M134.568 0.881836C117.999 0.881836 104.568 14.3133 104.568 30.8818V48.7364H76.3085C59.74 48.7364 46.3085 62.1678 46.3085 78.7364V105.564H30C13.4315 105.564 0 118.995 0 135.564V548.127C0 564.696 13.4314 578.127 30 578.127H144.79C144.787 577.876 144.786 577.624 144.786 577.372C144.786 541.1 174.158 511.695 210.392 511.695C246.625 511.695 275.998 541.1 275.998 577.372C275.998 577.624 275.996 577.876 275.993 578.127H389.764C406.333 578.127 419.764 564.696 419.764 548.127V135.564C419.764 118.995 406.333 105.564 389.764 105.564H373.456V78.7364C373.456 62.1678 360.024 48.7364 343.456 48.7364H315.197V30.8818C315.197 14.3133 301.765 0.881836 285.197 0.881836H134.568ZM223.211 30.1654C223.211 37.2532 217.472 42.999 210.392 42.999C203.312 42.999 197.572 37.2532 197.572 30.1654C197.572 23.0776 203.312 17.3318 210.392 17.3318C217.472 17.3318 223.211 23.0776 223.211 30.1654Z" fill="white"/>
</svg>
