<svg width="42" height="42" viewBox="0 0 42 42" fill="none" xmlns="http://www.w3.org/2000/svg">
<path d="M35.5823 17.9607C35.7727 18.9462 35.8765 19.9765 35.8765 21.0518C35.8765 29.4622 30.0477 35.4425 21.2441 35.4425C19.242 35.4431 17.2595 35.0627 15.4097 34.3231C13.5599 33.5835 11.8792 32.4992 10.4635 31.1321C9.04786 29.765 7.92501 28.1419 7.15914 26.3555C6.39327 24.5692 5.99939 22.6547 6 20.7213C5.99939 18.7879 6.39327 16.8733 7.15914 15.087C7.92501 13.3007 9.04786 11.6776 10.4635 10.3104C11.8792 8.94333 13.5599 7.85899 15.4097 7.11939C17.2595 6.37979 19.242 5.99941 21.2441 6C25.3602 6 28.7995 7.46256 31.4383 9.83734L27.141 13.9872V13.9768C25.5414 12.5052 23.5112 11.75 21.2441 11.75C16.2143 11.75 12.1261 15.8536 12.1261 20.7123C12.1261 25.5695 16.2143 29.682 21.2441 29.682C25.8077 29.682 28.9141 27.1622 29.5521 23.7017H21.2441V17.9607H35.5838H35.5823Z" fill="white"/>
</svg>
